<?xml version="1.0" standalone="no"?>
<!DOCTYPE svg PUBLIC "-//W3C//DTD SVG 20010904//EN"
 "http://www.w3.org/TR/2001/REC-SVG-20010904/DTD/svg10.dtd">
<svg version="1.0" xmlns="http://www.w3.org/2000/svg"
 width="838.000000pt" height="568.000000pt" viewBox="0 0 838.000000 568.000000"
 preserveAspectRatio="xMidYMid meet">

<g transform="translate(0.000000,568.000000) scale(0.100000,-0.100000)"
fill="#000000" stroke="none">
<path d="M3943 5218 c-7 -13 -8 -626 -1 -634 3 -2 202 -4 444 -6 679 -3 904
-11 994 -36 228 -64 355 -134 516 -284 113 -106 237 -314 281 -473 80 -287 46
-589 -94 -830 -163 -283 -412 -464 -738 -537 -77 -17 -137 -21 -406 -25 -227
-4 -322 -2 -338 6 l-21 12 -2 992 -3 992 -309 3 c-170 1 -313 -1 -318 -6 -9
-9 -12 -2628 -2 -2643 8 -13 1184 -12 1320 2 492 47 894 256 1204 624 98 117
153 203 225 350 123 253 175 469 175 734 0 439 -133 815 -402 1136 -308 368
-719 581 -1208 624 -52 5 -368 9 -702 10 -483 1 -608 -1 -615 -11z"/>
<path d="M1365 4311 c-16 -4 -40 -13 -52 -19 -49 -27 -53 -35 -109 -247 -14
-55 -35 -129 -45 -165 -10 -36 -29 -108 -43 -160 -13 -52 -34 -131 -46 -175
-12 -44 -40 -147 -62 -230 -22 -82 -49 -181 -59 -220 -11 -38 -35 -128 -53
-200 -19 -71 -42 -157 -51 -190 -9 -33 -27 -103 -41 -155 -14 -52 -33 -124
-44 -160 -10 -36 -35 -128 -55 -205 -21 -77 -47 -178 -60 -225 -13 -47 -49
-182 -80 -300 -31 -118 -65 -244 -75 -280 -10 -36 -35 -128 -55 -205 -20 -77
-40 -150 -45 -162 -5 -12 -12 -44 -16 -70 -12 -96 17 -103 462 -103 379 0 427
5 475 54 13 13 30 43 36 67 15 54 57 205 79 285 8 33 31 120 51 194 19 74 39
141 45 148 8 9 127 12 534 12 488 0 524 -1 533 -17 5 -10 23 -70 39 -133 17
-63 51 -191 76 -285 25 -93 51 -189 57 -213 14 -51 44 -77 115 -98 44 -12 113
-14 421 -12 327 3 372 5 400 20 17 10 34 26 38 37 3 11 -8 73 -26 138 -62 236
-77 290 -102 383 -29 108 -86 319 -123 460 -50 187 -66 247 -110 410 -24 91
-53 199 -64 240 -11 41 -31 116 -44 165 -47 170 -84 310 -154 575 -17 63 -38
142 -47 175 -9 33 -29 107 -44 165 -16 58 -40 148 -54 200 -63 233 -78 289
-93 350 -20 79 -35 103 -83 132 l-36 23 -680 2 c-374 1 -693 -2 -710 -6z m734
-886 c11 -44 36 -136 55 -205 18 -69 55 -206 81 -305 26 -99 51 -193 56 -210
9 -29 36 -132 80 -300 11 -44 25 -90 29 -102 5 -12 12 -45 16 -73 l7 -50 -369
2 c-362 3 -369 3 -368 23 1 11 16 74 34 140 18 66 47 176 66 245 18 69 40 152
49 185 29 109 56 208 85 320 67 253 92 344 112 410 l20 70 13 -35 c7 -19 22
-71 34 -115z"/>
</g>
</svg>
